<?xml version="1.0" encoding="UTF-8" standalone="no"?>
<!DOCTYPE svg PUBLIC "-//W3C//DTD SVG 1.0//EN" "http://www.w3.org/TR/2001/PR-SVG-20010719/DTD/svg10.dtd">
<svg width="33cm" height="21cm" viewBox="60 34 653 409" xmlns="http://www.w3.org/2000/svg" xmlns:xlink="http://www.w3.org/1999/xlink">
  <g>
    <g>
      <rect style="fill: #ffffff" x="71.9382" y="35.047" width="630.041" height="406.89"/>
      <path style="fill: #ffffff" d="M 71.9382,35.047 A 10,10 0 0 0 61.9382,45.047 L 71.9382,45.047 z"/>
      <path style="fill: #ffffff" d="M 711.98,45.047 A 10,10 0 0 0 701.98,35.047 L 701.98,45.047 z"/>
      <rect style="fill: #ffffff" x="61.9382" y="45.047" width="650.041" height="386.89"/>
      <path style="fill: #ffffff" d="M 61.9382,431.937 A 10,10 0 0 0 71.9382,441.937 L 71.9382,431.937 z"/>
      <path style="fill: #ffffff" d="M 701.98,441.937 A 10,10 0 0 0 711.98,431.937 L 701.98,431.937 z"/>
      <line style="fill: none; fill-opacity:0; stroke-width: 2; stroke: #000000" x1="71.9382" y1="35.047" x2="701.98" y2="35.047"/>
      <line style="fill: none; fill-opacity:0; stroke-width: 2; stroke: #000000" x1="71.9382" y1="441.937" x2="701.98" y2="441.937"/>
      <path style="fill: none; fill-opacity:0; stroke-width: 2; stroke: #000000" d="M 71.9382,35.047 A 10,10 0 0 0 61.9382,45.047"/>
      <path style="fill: none; fill-opacity:0; stroke-width: 2; stroke: #000000" d="M 711.98,45.047 A 10,10 0 0 0 701.98,35.047"/>
      <line style="fill: none; fill-opacity:0; stroke-width: 2; stroke: #000000" x1="61.9382" y1="45.047" x2="61.9382" y2="431.937"/>
      <line style="fill: none; fill-opacity:0; stroke-width: 2; stroke: #000000" x1="711.98" y1="45.047" x2="711.98" y2="431.937"/>
      <path style="fill: none; fill-opacity:0; stroke-width: 2; stroke: #000000" d="M 61.9382,431.937 A 10,10 0 0 0 71.9382,441.937"/>
      <path style="fill: none; fill-opacity:0; stroke-width: 2; stroke: #000000" d="M 701.98,441.937 A 10,10 0 0 0 711.98,431.937"/>
      <text font-size="12.7998" style="fill: #000000;text-anchor:middle;font-family:sans-serif;font-style:normal;font-weight:normal" x="386.959" y="242.392">
        <tspan x="386.959" y="242.392"></tspan>
      </text>
    </g>
    <g>
      <rect style="fill: #add8e6" x="162.804" y="106.555" width="123.9" height="54.004"/>
      <path style="fill: #add8e6" d="M 162.804,106.555 A 6,6 0 0 0 156.804,112.555 L 162.804,112.555 z"/>
      <path style="fill: #add8e6" d="M 292.704,112.555 A 6,6 0 0 0 286.704,106.555 L 286.704,112.555 z"/>
      <rect style="fill: #add8e6" x="156.804" y="112.555" width="135.9" height="42.004"/>
      <path style="fill: #add8e6" d="M 156.804,154.559 A 6,6 0 0 0 162.804,160.559 L 162.804,154.559 z"/>
      <path style="fill: #add8e6" d="M 286.704,160.559 A 6,6 0 0 0 292.704,154.559 L 286.704,154.559 z"/>
      <line style="fill: none; fill-opacity:0; stroke-width: 2; stroke: #000000" x1="162.804" y1="106.555" x2="286.704" y2="106.555"/>
      <line style="fill: none; fill-opacity:0; stroke-width: 2; stroke: #000000" x1="162.804" y1="160.559" x2="286.704" y2="160.559"/>
      <path style="fill: none; fill-opacity:0; stroke-width: 2; stroke: #000000" d="M 162.804,106.555 A 6,6 0 0 0 156.804,112.555"/>
      <path style="fill: none; fill-opacity:0; stroke-width: 2; stroke: #000000" d="M 292.704,112.555 A 6,6 0 0 0 286.704,106.555"/>
      <line style="fill: none; fill-opacity:0; stroke-width: 2; stroke: #000000" x1="156.804" y1="112.555" x2="156.804" y2="154.559"/>
      <line style="fill: none; fill-opacity:0; stroke-width: 2; stroke: #000000" x1="292.704" y1="112.555" x2="292.704" y2="154.559"/>
      <path style="fill: none; fill-opacity:0; stroke-width: 2; stroke: #000000" d="M 156.804,154.559 A 6,6 0 0 0 162.804,160.559"/>
      <path style="fill: none; fill-opacity:0; stroke-width: 2; stroke: #000000" d="M 286.704,160.559 A 6,6 0 0 0 292.704,154.559"/>
      <text font-size="12.8016" style="fill: #000000;text-anchor:middle;font-family:Arial Black;font-style:normal;font-weight:900" x="224.754" y="131.655">
        <tspan x="224.754" y="131.655">Struktur Kontrol</tspan>
        <tspan x="224.754" y="147.657">Program</tspan>
      </text>
    </g>
    <g>
      <ellipse style="fill: #ffc0cb" cx="165.139" cy="249.097" rx="74.5093" ry="42.2779"/>
      <ellipse style="fill: none; fill-opacity:0; stroke-width: 2; stroke: #000000" cx="165.139" cy="249.097" rx="74.5093" ry="42.2779"/>
      <text font-size="12.7998" style="fill: #000000;text-anchor:middle;font-family:sans-serif;font-style:normal;font-weight:normal" x="165.139" y="236.997">
        <tspan x="165.139" y="236.997">Loop</tspan>
        <tspan x="165.139" y="252.997">Perulangan</tspan>
        <tspan x="165.139" y="268.997">(iterasi)</tspan>
      </text>
    </g>
    <g>
      <ellipse style="fill: #ffc0cb" cx="321.932" cy="298.435" rx="78.4275" ry="42.1866"/>
      <ellipse style="fill: none; fill-opacity:0; stroke-width: 2; stroke: #000000" cx="321.932" cy="298.435" rx="78.4275" ry="42.1866"/>
      <text font-size="12.7998" style="fill: #000000;text-anchor:middle;font-family:sans-serif;font-style:normal;font-weight:normal" x="321.932" y="286.335">
        <tspan x="321.932" y="286.335">Pengambilan </tspan>
        <tspan x="321.932" y="302.335">Keputusan</tspan>
        <tspan x="321.932" y="318.335">(Seleksi)</tspan>
      </text>
    </g>
    <text font-size="12.7998" style="fill: #000000;text-anchor:start;font-family:sans-serif;font-style:normal;font-weight:normal" x="165.139" y="249.097">
      <tspan x="165.139" y="249.097"></tspan>
    </text>
    <g>
      <line style="fill: none; fill-opacity:0; stroke-width: 2; stroke: #000000" x1="190.779" y1="160.559" x2="168.834" y2="196.15"/>
      <polygon style="fill: #000000" points="164.898,202.533 165.89,191.397 168.834,196.15 174.402,196.646 "/>
      <polygon style="fill: none; fill-opacity:0; stroke-width: 2; stroke: #000000" points="164.898,202.533 165.89,191.397 168.834,196.15 174.402,196.646 "/>
    </g>
    <g>
      <line style="fill: none; fill-opacity:0; stroke-width: 2; stroke: #000000" x1="258.729" y1="160.559" x2="288.822" y2="250.229"/>
      <polygon style="fill: #000000" points="291.208,257.34 283.286,249.45 288.822,250.229 292.767,246.269 "/>
      <polygon style="fill: none; fill-opacity:0; stroke-width: 2; stroke: #000000" points="291.208,257.34 283.286,249.45 288.822,250.229 292.767,246.269 "/>
    </g>
    <g>
      <rect style="fill: #ffffff" x="251.63" y="364.171" width="138.028" height="54"/>
      <rect style="fill: none; fill-opacity:0; stroke-width: 2; stroke: #000000" x="251.63" y="364.171" width="138.028" height="54"/>
      <text font-size="12.7998" style="fill: #000000;text-anchor:middle;font-family:sans-serif;font-style:normal;font-weight:normal" x="320.644" y="387.071">
        <tspan x="320.644" y="387.071">if-else</tspan>
        <tspan x="320.644" y="403.071">if-elif-else</tspan>
      </text>
    </g>
    <g>
      <line style="fill: none; fill-opacity:0; stroke-width: 2; stroke: #000000" x1="321.932" y1="340.622" x2="321.176" y2="354.449"/>
      <polygon style="fill: #000000" points="320.766,361.938 316.32,351.68 321.176,354.449 326.305,352.226 "/>
      <polygon style="fill: none; fill-opacity:0; stroke-width: 2; stroke: #000000" points="320.766,361.938 316.32,351.68 321.176,354.449 326.305,352.226 "/>
    </g>
    <g>
      <rect style="fill: #ffffff" x="96.3271" y="331.744" width="138.028" height="54"/>
      <rect style="fill: none; fill-opacity:0; stroke-width: 2; stroke: #000000" x="96.3271" y="331.744" width="138.028" height="54"/>
      <text font-size="12.7998" style="fill: #000000;text-anchor:middle;font-family:sans-serif;font-style:normal;font-weight:normal" x="165.341" y="354.644">
        <tspan x="165.341" y="354.644">while</tspan>
        <tspan x="165.341" y="370.644">for</tspan>
      </text>
    </g>
    <g>
      <line style="fill: none; fill-opacity:0; stroke-width: 2; stroke: #000000" x1="165.139" y1="291.375" x2="165.292" y2="322.008"/>
      <polygon style="fill: #000000" points="165.33,329.508 160.28,319.533 165.292,322.008 170.28,319.483 "/>
      <polygon style="fill: none; fill-opacity:0; stroke-width: 2; stroke: #000000" points="165.33,329.508 160.28,319.533 165.292,322.008 170.28,319.483 "/>
    </g>
    <g>
      <rect style="fill: #ffffff" x="363.129" y="64.9415" width="117.519" height="38"/>
      <rect style="fill: none; fill-opacity:0; stroke-width: 2; stroke: #000000" x="363.129" y="64.9415" width="117.519" height="38"/>
      <text font-size="12.7998" style="fill: #000000;text-anchor:middle;font-family:sans-serif;font-style:normal;font-weight:normal" x="421.889" y="87.8415">
        <tspan x="421.889" y="87.8415">Fungsi</tspan>
      </text>
    </g>
    <g>
      <rect style="fill: #ffffff" x="397.058" y="133.57" width="117.519" height="38"/>
      <rect style="fill: none; fill-opacity:0; stroke-width: 2; stroke: #000000" x="397.058" y="133.57" width="117.519" height="38"/>
      <text font-size="12.7998" style="fill: #000000;text-anchor:middle;font-family:sans-serif;font-style:normal;font-weight:normal" x="455.817" y="156.47">
        <tspan x="455.817" y="156.47">Class</tspan>
      </text>
    </g>
    <g>
      <rect style="fill: #ffffff" x="446.64" y="207.442" width="117.519" height="38"/>
      <rect style="fill: none; fill-opacity:0; stroke-width: 2; stroke: #000000" x="446.64" y="207.442" width="117.519" height="38"/>
      <text font-size="12.7998" style="fill: #000000;text-anchor:middle;font-family:sans-serif;font-style:normal;font-weight:normal" x="505.399" y="230.342">
        <tspan x="505.399" y="230.342">Module</tspan>
      </text>
    </g>
    <g>
      <line style="fill: none; fill-opacity:0; stroke-width: 2; stroke: #000000" x1="292.704" y1="120.056" x2="354.466" y2="88.3842"/>
      <polygon style="fill: #000000" points="361.14,84.9619 354.523,93.9741 354.466,88.3842 349.96,85.0758 "/>
      <polygon style="fill: none; fill-opacity:0; stroke-width: 2; stroke: #000000" points="361.14,84.9619 354.523,93.9741 354.466,88.3842 349.96,85.0758 "/>
    </g>
    <g>
      <line style="fill: none; fill-opacity:0; stroke-width: 2; stroke: #000000" x1="293.711" y1="141.166" x2="387.381" y2="151.502"/>
      <polygon style="fill: #000000" points="394.835,152.325 384.347,156.198 387.381,151.502 385.444,146.258 "/>
      <polygon style="fill: none; fill-opacity:0; stroke-width: 2; stroke: #000000" points="394.835,152.325 384.347,156.198 387.381,151.502 385.444,146.258 "/>
    </g>
    <g>
      <line style="fill: none; fill-opacity:0; stroke-width: 2; stroke: #000000" x1="291.629" y1="161.552" x2="437.659" y2="222.682"/>
      <polygon style="fill: #000000" points="444.577,225.578 433.422,226.329 437.659,222.682 437.284,217.105 "/>
      <polygon style="fill: none; fill-opacity:0; stroke-width: 2; stroke: #000000" points="444.577,225.578 433.422,226.329 437.659,222.682 437.284,217.105 "/>
    </g>
    <text font-size="12.7998" style="fill: #000000;text-anchor:start;font-family:sans-serif;font-style:normal;font-weight:normal" x="361.743" y="116.328">
      <tspan x="361.743" y="116.328">Membuat blok kode yang mudah di gunakan ulang</tspan>
    </text>
    <text font-size="12.7998" style="fill: #000000;text-anchor:start;font-family:sans-serif;font-style:normal;font-weight:normal" x="389.118" y="263.991">
      <tspan x="389.118" y="263.991">Membuat blok kode dalam file terpisah</tspan>
    </text>
    <text font-size="12.7998" style="fill: #000000;text-anchor:start;font-family:sans-serif;font-style:normal;font-weight:normal" x="417.109" y="190.582">
      <tspan x="417.109" y="190.582">Kode untuk membuat obyek dalam python</tspan>
    </text>
  </g>
</svg>
